<svg xmlns:xlink="http://www.w3.org/1999/xlink" xmlns="http://www.w3.org/2000/svg" width="905" height="108" viewBox="0 0 905 108" fill="none">
<path fill-rule="evenodd" clip-rule="evenodd" d="M109.831 0H0V108H109.831V0ZM54.9154 94.4662C77.6433 94.4662 96.0679 76.3488 96.0679 53.9998C96.0679 31.6509 77.6433 13.5335 54.9154 13.5335C32.1876 13.5335 13.763 31.6509 13.763 53.9998C13.763 76.3488 32.1876 94.4662 54.9154 94.4662Z" fill="white"/>
<path d="M175.621 48.5198C197.506 53.8663 211.778 57.4752 211.778 79.2624C211.778 93.1634 201.312 106.129 176.708 106.129C153.736 106.129 135.93 94.099 134.57 72.1782H146.804C148.163 85.2772 156.319 95.4356 176.708 95.4356C193.564 95.4356 199.545 87.8168 199.545 79.2624C199.545 66.1634 192.34 63.7574 170.592 58.8119C156.047 55.4703 138.648 50.5247 138.648 31.9455C138.648 16.8416 150.474 6.81683 171.951 6.81683C192.612 6.81683 207.021 17.2426 208.652 37.0247H196.418C194.651 24.1931 187.311 17.5099 171.951 17.5099C158.222 17.5099 150.882 22.7228 150.882 30.6089C150.882 43.3069 161.348 45.0445 175.621 48.5198Z" fill="white"/>
<path d="M273.351 60.6832C272.808 53.198 267.642 43.5743 253.777 43.5743C237.33 43.5743 231.077 57.3416 231.077 70.1733C231.077 83.005 237.33 96.7723 253.777 96.7723C267.778 96.7723 272.808 87.2822 273.351 79.1287H284.226C283.274 94.6337 270.905 106.129 253.777 106.129C233.524 106.129 220.203 91.5594 220.203 70.1733C220.203 48.7871 233.524 34.2178 253.777 34.2178C270.905 34.2178 282.594 45.4455 284.226 60.6832H273.351Z" fill="white"/>
<path d="M338.369 53.4653C338.369 48.1188 335.379 43.5743 324.232 43.5743C311.047 43.5743 306.698 47.3168 306.018 57.2079H295.144C295.823 44.1089 304.115 34.2178 324.232 34.2178C337.418 34.2178 349.243 39.297 349.243 55.7376V88.8861C349.243 94.2327 350.195 97.1733 357.127 96.3713V103.856C354.273 104.792 352.778 104.926 350.739 104.926C344.214 104.926 340.272 103.188 338.369 95.703H338.097C333.748 102.119 326 106.129 314.581 106.129C300.581 106.129 291.745 98.2426 291.745 86.7475C291.745 71.2426 303.435 67.2327 321.378 63.8911C333.068 61.7525 338.369 60.2822 338.369 53.4653ZM315.669 96.7723C328.582 96.7723 338.369 91.0247 338.369 77.9257V66.5644C336.33 68.5693 329.67 70.4406 322.329 71.9109C308.872 74.7178 302.62 78.0594 302.62 86.2129C302.62 92.896 306.698 96.7723 315.669 96.7723Z" fill="white"/>
<path d="M365.659 8.68811H376.533V104.257H365.659V8.68811Z" fill="white"/>
<path d="M421.43 96.7723C435.294 96.7723 440.46 87.9505 441.683 83.2723H452.557C449.023 95.9703 439.1 106.129 421.837 106.129C400.768 106.129 387.991 91.5594 387.991 70.1733C387.991 47.4505 401.04 34.2178 421.294 34.2178C443.042 34.2178 453.645 48.7871 453.645 72.9802H398.865C398.865 85.2772 406.341 96.7723 421.43 96.7723ZM421.294 43.5743C408.244 43.5743 398.865 52.6634 398.865 63.6238H442.771C442.771 52.6634 434.343 43.5743 421.294 43.5743Z" fill="white"/>
<path d="M492.005 55.4703L461.149 8.68811H474.742L498.665 46.9158H498.801L522.861 8.68811H536.454L505.598 55.203L538.764 104.257H523.812L498.801 64.0247H498.665L473.79 104.257H458.838L492.005 55.4703Z" fill="white"/>
<path d="M577.288 8.68811H589.521V104.257H577.288V8.68811Z" fill="white"/>
<path d="M640.296 34.2178C652.938 34.2178 663.54 41.0347 663.54 56.6733V104.257H652.666V59.3465C652.666 50.5247 648.452 43.5743 637.578 43.5743C625.344 43.5743 617.188 51.1931 617.188 61.7525V104.257H606.314V36.0891H617.188V44.2426H617.46C621.13 39.4307 628.471 34.2178 640.296 34.2178Z" fill="white"/>
<path d="M669.597 36.0891H681.422L700.589 93.5644H700.725L719.891 36.0891H731.716L706.841 104.257H694.472L669.597 36.0891Z" fill="white"/>
<path d="M767.625 96.7723C781.49 96.7723 786.655 87.9505 787.879 83.2723H798.753C795.219 95.9703 785.296 106.129 768.033 106.129C746.964 106.129 734.187 91.5594 734.187 70.1733C734.187 47.4505 747.236 34.2178 767.489 34.2178C789.238 34.2178 799.841 48.7871 799.841 72.9802H745.061C745.061 85.2772 752.537 96.7723 767.625 96.7723ZM767.489 43.5743C754.44 43.5743 745.061 52.6634 745.061 63.6238H788.966C788.966 52.6634 780.539 43.5743 767.489 43.5743Z" fill="white"/>
<path d="M838.744 63.7574C851.114 66.698 865.114 68.703 865.114 85.5446C865.114 97.9752 853.56 106.129 837.793 106.129C816.588 106.129 806.801 96.2376 806.121 81.5346H816.995C817.675 89.1535 820.394 96.7723 837.793 96.7723C849.618 96.7723 854.24 90.7574 854.24 86.2129C854.24 76.3218 845.133 75.7871 835.21 73.3812C824.607 70.8416 808.84 69.6386 808.84 53.599C808.84 42.9059 818.491 34.2178 834.802 34.2178C852.065 34.2178 861.308 43.8416 862.396 55.604H851.521C850.434 50.3911 847.851 43.5743 834.802 43.5743C825.015 43.5743 819.714 47.4505 819.714 52.797C819.714 60.8168 829.093 61.4851 838.744 63.7574Z" fill="white"/>
<path d="M904.5 45.4455H890.907V86.4802C890.907 94.2327 895.257 95.5693 904.5 94.901V104.257C902.053 104.792 899.199 105.059 896.344 105.059C887.101 105.059 880.033 101.45 880.033 87.5495V45.4455H869.838V36.0891H880.033V13.3663H890.907V36.0891H904.5V45.4455Z" fill="white"/>
</svg>






